<svg width="1095" height="737" viewBox="0 0 1095 737" fill="none" xmlns="http://www.w3.org/2000/svg">
<path d="M232.2 566C229.4 575.2 228.4 583.4 229.2 590.6C230.4 597.4 234.8 600.8 242.4 600.8C249.6 600.8 256.4 596.8 262.8 588.8C269.6 580.8 276.6 566 283.8 544.4L292.2 519.8H303.6L289.2 563.6C284.4 579.6 277.8 592.2 269.4 601.4C261.4 610.2 252.6 616.4 243 620C233.8 623.6 225 625.4 216.6 625.4C192.2 625.4 178.6 614.8 175.8 593.6C174.2 586.8 173.8 578.8 174.6 569.6C175.8 560 178.2 549.4 181.8 537.8L267 216.8C270.6 203.2 270 193.2 265.2 186.8C260.4 180.4 248.2 177.2 228.6 177.2L232.2 164.6C256.6 164.2 278 162 296.4 158C315.2 153.6 333 147.6 349.8 140L232.2 566ZM94.8 602.6C103.6 602.6 113.8 597.2 125.4 586.4C137 575.6 148.8 560.6 160.8 541.4C172.8 522.2 184 499.8 194.4 474.2C205.2 448.2 214 420.6 220.8 391.4L211.8 456.2C197 496.6 182.2 529.2 167.4 554C153 578.8 138 597 122.4 608.6C106.8 619.8 89.6 625.4 70.8 625.4C58.4 625.4 47.2 622.6 37.2 617C27.2 611 19.4 602.2 13.8 590.6C8.2 578.6 5.4 563.2 5.4 544.4C5.4 525.6 8.4 505.2 14.4 483.2C20.8 461.2 29.6 439.4 40.8 417.8C52.4 396.2 66.2 376.6 82.2 359C98.6 341 116.8 326.6 136.8 315.8C156.8 305 178.4 299.6 201.6 299.6C212 299.6 220.8 303 228 309.8C235.6 316.2 239.8 325.8 240.6 338.6L235.8 350.6C234.2 337.4 230.6 328 225 322.4C219.4 316.4 212.6 313.4 204.6 313.4C191 313.4 177.6 318.4 164.4 328.4C151.2 338.4 139 352 127.8 369.2C116.6 386 106.6 404.8 97.8 425.6C89.4 446.4 82.8 468 78 490.4C73.2 512.4 70.8 533.6 70.8 554C70.8 570.4 72.8 582.6 76.8 590.6C80.8 598.6 86.8 602.6 94.8 602.6ZM344.227 482.6C364.627 475.4 383.227 468 400.027 460.4C417.227 452.8 431.227 444.6 442.027 435.8C456.827 423.4 468.427 408.8 476.827 392C485.627 374.8 490.027 356 490.027 335.6C490.027 325.2 489.227 318.6 487.627 315.8C486.027 312.6 483.627 311 480.427 311C470.827 311 460.427 315.4 449.227 324.2C438.427 333 427.627 345.2 416.827 360.8C406.027 376 396.027 393.4 386.827 413C378.027 432.2 370.827 452.8 365.227 474.8C360.027 496.4 357.427 517.8 357.427 539C357.427 559.8 361.227 574.6 368.827 583.4C376.827 592.2 387.227 596.6 400.027 596.6C413.227 596.6 427.827 592.6 443.827 584.6C459.827 576.2 475.627 561.4 491.227 540.2L500.827 545C492.827 558.2 482.427 571 469.627 583.4C456.827 595.8 442.227 606 425.827 614C409.827 621.6 392.427 625.4 373.627 625.4C357.227 625.4 342.627 622.2 329.827 615.8C317.027 609.4 307.027 600 299.827 587.6C293.027 574.8 289.627 559.2 289.627 540.8C289.627 522.4 292.827 502.4 299.227 480.8C306.027 458.8 315.427 437.2 327.427 416C339.827 394.8 354.427 375.4 371.227 357.8C388.027 339.8 406.827 325.6 427.627 315.2C448.427 304.8 470.427 299.6 493.627 299.6C508.027 299.6 520.027 303.2 529.627 310.4C539.227 317.2 544.027 327.6 544.027 341.6C544.027 357.6 539.427 372.6 530.227 386.6C521.427 400.2 509.427 412.6 494.227 423.8C479.027 435 462.427 445 444.427 453.8C426.827 462.6 409.027 470.2 391.027 476.6C373.427 483 357.627 488.2 343.627 492.2L344.227 482.6ZM766.856 399.8C754.056 393.4 742.456 384.2 732.056 372.2C721.656 360.2 716.856 345.8 717.656 329C718.456 318.6 721.856 311 727.856 306.2C734.256 301.4 741.056 299 748.256 299C762.656 299 772.656 306.4 778.256 321.2C783.856 336 785.656 355.2 783.656 378.8C781.256 402 776.856 425.4 770.456 449C764.056 472.2 755.456 494.4 744.656 515.6C734.256 536.8 721.456 555.8 706.256 572.6C691.456 589 674.456 602 655.256 611.6C636.456 620.8 615.456 625.4 592.256 625.4C572.656 625.4 557.456 621.8 546.656 614.6C535.856 607 528.256 597.6 523.856 586.4C519.456 574.8 517.656 563 518.456 551C519.656 527.8 526.656 503.4 539.456 477.8C552.256 452.2 569.256 426.2 590.456 399.8C612.056 373.4 636.856 347.8 664.856 323C657.256 325 649.656 328.4 642.056 333.2C634.456 337.6 627.256 342.2 620.456 347C613.656 351.8 607.056 356 600.656 359.6C594.256 362.8 588.056 364.4 582.056 364.4C574.456 364.4 568.056 362.2 562.856 357.8C557.656 353 551.856 350.6 545.456 350.6C539.056 350.6 533.856 353.2 529.856 358.4C526.256 363.2 522.256 372 517.856 384.8L511.856 405.2H500.456L513.656 361.4C520.456 337 528.856 320.6 538.856 312.2C549.256 303.8 559.656 299.6 570.056 299.6C577.656 299.6 584.056 301.6 589.256 305.6C594.456 309.2 599.856 312.8 605.456 316.4C611.056 320 618.056 321.8 626.456 321.8C635.256 321.8 643.656 320.6 651.656 318.2C660.056 315.4 667.856 311 675.056 305L681.056 293.6L693.656 299.6C678.056 319.6 664.056 339.8 651.656 360.2C639.656 380.6 629.256 401.2 620.456 422C611.656 442.4 604.656 462.8 599.456 483.2C594.256 503.2 590.856 523.2 589.256 543.2C587.656 564.4 589.256 579.8 594.056 589.4C598.856 598.6 605.856 603.2 615.056 603.2C632.656 603.2 648.856 598.6 663.656 589.4C678.856 580.2 692.456 568.2 704.456 553.4C716.456 538.2 726.856 521.6 735.656 503.6C744.456 485.2 751.456 467 756.656 449C761.856 431 765.256 414.6 766.856 399.8ZM934.42 588.8L886.42 642.2L839.62 360.2C837.62 348.2 835.42 340 833.02 335.6C830.62 330.8 826.82 328.4 821.62 328.4C817.62 328.4 813.02 331.8 807.82 338.6C802.62 345 796.22 358.8 788.62 380L780.22 404.6H768.82L783.82 360.8C792.22 336.4 802.62 320.2 815.02 312.2C827.42 303.8 840.42 299.6 854.02 299.6C868.02 299.6 878.82 303.8 886.42 312.2C894.42 320.2 900.02 335.4 903.22 357.8L934.42 588.8ZM798.82 701C816.82 691.8 835.62 679.2 855.22 663.2C874.82 647.6 895.02 626.4 915.82 599.6C939.02 570.4 959.82 538 978.22 502.4C996.62 466.8 1009.82 431.4 1017.82 396.2C1010.22 391.8 1002.42 386.6 994.42 380.6C986.82 374.2 980.42 367 975.22 359C970.42 351 968.22 342 968.62 332C969.42 321.6 972.82 313.6 978.82 308C984.82 302.4 992.82 299.6 1002.82 299.6C1014.42 299.6 1022.82 304 1028.02 312.8C1033.62 321.2 1036.42 333.6 1036.42 350C1036.42 370 1033.02 391.6 1026.22 414.8C1019.82 437.6 1010.82 461 999.22 485C988.02 509 975.42 532.2 961.42 554.6C947.42 576.6 933.02 596.8 918.22 615.2C909.82 625.6 899.22 637 886.42 649.4C874.02 662.2 859.82 674.6 843.82 686.6C828.22 698.6 810.82 708.6 791.62 716.6C780.82 721.4 771.22 724.8 762.82 726.8C754.82 728.8 748.22 729.8 743.02 729.8C733.42 729.8 725.42 727.4 719.02 722.6C712.22 717.8 708.82 711 708.82 702.2C708.82 693 712.42 685.6 719.62 680C726.42 674.4 734.62 671.6 744.22 671.6C754.62 671.6 764.22 674.4 773.02 680C782.22 686 790.82 693 798.82 701Z" fill="#020617"/>
</svg>
